<?xml version="1.0" encoding="UTF-8"?>
<svg version="1.1" xmlns="http://www.w3.org/2000/svg" width="600" height="509">
<path d="M0 0 C4.82656708 5.00502839 8.24908628 10.97482208 11.875 16.875 C13.21602522 19.03913725 14.5571745 21.20319762 15.8984375 23.3671875 C16.5800293 24.47030273 17.26162109 25.57341797 17.96386719 26.70996094 C21.12492879 31.81769069 24.31310875 36.90836291 27.5 42 C28.75141898 44.00253112 30.00272078 46.00513548 31.25390625 48.0078125 C33.73843187 51.98331222 36.22561199 55.95713295 38.71484375 59.9296875 C45.24985065 70.36391232 51.74595628 80.82027818 58.1875 91.3125 C63.71413863 100.31329027 69.30235716 109.27066223 74.95703125 118.19140625 C86.46865212 136.35907133 97.75238257 154.6682355 109 173 C105.32709773 180.02455286 101.05415074 186.57106716 96.61572266 193.13244629 C94.59825102 196.11622246 92.59321264 199.10830498 90.58984375 202.1015625 C90.19280243 202.69473267 89.79576111 203.28790283 89.38668823 203.89904785 C86.00623322 208.96319627 82.7278309 214.08719437 79.5 219.25 C75.83925306 225.10131438 72.11438955 230.89279963 68.26391602 236.62084961 C63.76941341 243.31702473 59.35430035 250.0649654 54.9375 256.8125 C54.52774933 257.43837006 54.11799866 258.06424011 53.6958313 258.70907593 C50.79607692 263.13863594 47.89785593 267.56919787 45 272 C44.24984498 273.14681496 43.49968246 274.29362501 42.74951172 275.44042969 C37.83146138 282.95927581 32.91542886 290.47943991 28 298 C18.77242022 312.11811059 9.5393444 326.23257102 0.29455566 340.3394165 C-8.14645851 353.22007371 -16.57455721 366.10915149 -25 379 C-34.13948669 392.98332898 -43.28324809 406.96383318 -52.4375 420.9375 C-52.85481384 421.57458893 -53.27212769 422.21167786 -53.7020874 422.86807251 C-54.88328204 424.67125523 -56.06465411 426.47432155 -57.24609375 428.27734375 C-57.92341553 429.31109131 -58.6007373 430.34483887 -59.29858398 431.40991211 C-60.52557146 433.27777122 -61.76034795 435.14052193 -63 437 C-65.69576467 437.30098748 -68.16323217 437.40424469 -70.86210632 437.38095093 C-71.68375379 437.3856309 -72.50540125 437.39031087 -73.35194713 437.39513266 C-76.12110469 437.40715367 -78.88977381 437.39759772 -81.65893555 437.38818359 C-83.63799836 437.3922463 -85.6170589 437.39758648 -87.59611511 437.40411377 C-92.98478076 437.41783342 -98.37327479 437.41246841 -103.76194358 437.40297651 C-109.39613554 437.39539862 -115.03031248 437.4024208 -120.664505 437.40713501 C-130.13305303 437.41260027 -139.60153097 437.40538311 -149.07006836 437.39111328 C-160.01496951 437.37480885 -170.95970282 437.38005615 -181.90459985 437.3965925 C-191.29576925 437.41021353 -200.68688816 437.41212328 -210.07806426 437.40427649 C-215.68921871 437.39960035 -221.30029434 437.39897306 -226.91144371 437.40888596 C-232.19162262 437.41756142 -237.47158577 437.4115229 -242.75174141 437.39420319 C-244.68870562 437.39024046 -246.62568802 437.39136872 -248.56264496 437.39799118 C-251.20966587 437.40620576 -253.85599825 437.39588591 -256.50297546 437.38095093 C-257.26719289 437.38764309 -258.03141032 437.39433526 -258.81878585 437.40123022 C-264.60661966 437.3380214 -269.3795685 436.19778126 -273.9375 432.375 C-275.63833998 428.5731224 -275.62432141 425.09533004 -275 421 C-273.46702726 417.29280152 -271.40189615 414.00253742 -269.25 410.625 C-268.65872314 409.66239258 -268.06744629 408.69978516 -267.45825195 407.70800781 C-265.65951365 404.79180964 -263.83377423 401.89426408 -262 399 C-261.00867174 397.41954852 -260.01775628 395.838838 -259.02734375 394.2578125 C-257.10022821 391.19251919 -255.16025655 388.13573793 -253.21484375 385.08203125 C-249.50179526 379.23627655 -245.87482938 373.3382325 -242.25 367.4375 C-241.57694824 366.34187744 -240.90389648 365.24625488 -240.21044922 364.11743164 C-238.83254545 361.87339357 -237.45494378 359.62916998 -236.07763672 357.38476562 C-232.65980114 351.8166255 -229.23638045 346.25192451 -225.8125 340.6875 C-224.81138184 339.06026001 -224.81138184 339.06026001 -223.79003906 337.40014648 C-219.18383486 329.91591263 -214.56244292 322.4412247 -209.93286133 314.97143555 C-205.60771454 307.98966917 -201.3020875 300.99599428 -197 294 C-191.65928873 285.31501032 -186.30475381 276.63884218 -180.93359375 267.97265625 C-176.60824387 260.99045755 -172.30233607 253.99639851 -168 247 C-162.65928873 238.31501032 -157.30475381 229.63884218 -151.93359375 220.97265625 C-147.6082438 213.99045744 -143.30236377 206.99638156 -139 200 C-132.54450913 189.50301086 -126.06843397 179.01901476 -119.57666016 168.54443359 C-116.88291446 164.19723359 -114.19157322 159.8485453 -111.5 155.5 C-108.2862934 150.30788832 -105.07219597 145.11602221 -101.85546875 139.92578125 C-96.60703135 131.45534583 -91.36959428 122.97842087 -86.15307617 114.48828125 C-80.26514246 104.90541574 -74.34991955 95.34139944 -68.375 85.8125 C-63.5248115 78.07637971 -58.73326845 70.30819464 -54 62.5 C-48.02742282 52.64974876 -41.95332554 42.86681945 -35.82421875 33.11328125 C-33.15221974 28.85700575 -30.51428766 24.58158867 -27.89453125 20.29296875 C-27.22156006 19.19782959 -26.54858887 18.10269043 -25.85522461 16.97436523 C-24.56620041 14.87546959 -23.28408509 12.77231005 -22.01000977 10.66430664 C-15.68105933 0.39866337 -15.68105933 0.39866337 -9.93359375 -1.78515625 C-6.43592567 -2.17378604 -3.10668948 -1.56780791 0 0 Z M-22 98 C-27.13727256 104.67130036 -31.52137425 111.90506254 -35.9375 119.0625 C-41.25287048 127.62233473 -46.62134597 136.14454164 -52.0625 144.625 C-52.72934814 145.66446777 -53.39619629 146.70393555 -54.08325195 147.77490234 C-55.41203117 149.84591606 -56.74088753 151.91688029 -58.06982422 153.98779297 C-61.0985845 158.71443658 -64.11271742 163.45034368 -67.125 168.1875 C-67.69484619 169.08355957 -68.26469238 169.97961914 -68.85180664 170.90283203 C-69.99537067 172.70127695 -71.13884431 174.49977935 -72.28222656 176.29833984 C-75.18673564 180.86646057 -78.09349229 185.43315077 -81 190 C-82.1666772 191.83332663 -83.33334387 193.66665996 -84.5 195.5 C-100.83333333 221.16666667 -117.16666667 246.83333333 -133.5 272.5 C-134.07733887 273.4072583 -134.65467773 274.3145166 -135.24951172 275.24926758 C-136.41776388 277.08506912 -137.58605824 278.9208438 -138.75439453 280.7565918 C-141.64714755 285.30194376 -144.5391977 289.84773967 -147.4296875 294.39453125 C-153.60466433 304.10608573 -159.7936533 313.8084591 -166 323.5 C-167.99756646 326.6209846 -169.99494001 329.74209252 -171.9921875 332.86328125 C-173.35097363 334.98605413 -174.71036602 337.10843905 -176.0703125 339.23046875 C-178.04903765 342.31893519 -180.0248456 345.40924914 -182 348.5 C-182.90878906 349.91635742 -182.90878906 349.91635742 -183.8359375 351.36132812 C-184.38507813 352.22177734 -184.93421875 353.08222656 -185.5 353.96875 C-185.9846875 354.72607422 -186.469375 355.48339844 -186.96875 356.26367188 C-188.08510841 357.80671755 -188.08510841 357.80671755 -188 359 C-132.26250455 367.16069988 -132.26250455 367.16069988 -81.3782196 353.14736938 C-73.02021478 344.13986945 -68.71692664 332.53511953 -64.52929688 321.16162109 C-60.96249125 311.88846965 -55.15381592 304.1434657 -49.38098145 296.13394165 C-46.24636159 291.74452791 -43.25397851 287.26060261 -40.25 282.78125 C-39.65221741 281.89504471 -39.05443481 281.00883942 -38.4385376 280.09577942 C-31.10366815 269.21795302 -23.91366278 258.2446811 -16.712677 247.27801514 C-4.34477186 228.44912498 8.22996178 209.76260321 20.86561584 191.11257935 C21.81719168 189.70784925 22.76688405 188.30184049 23.7142334 186.89425659 C24.54957698 185.66358604 25.39643135 184.44062277 26.25646973 183.2270813 C27.21996254 181.85108432 28.11734605 180.4291984 29 179 C28.13469503 174.11837384 24.29159257 169.51665707 21.625 165.375 C20.5337441 163.6641327 19.44260139 161.9531932 18.3515625 160.2421875 C17.7937207 159.37045898 17.23587891 158.49873047 16.66113281 157.60058594 C14.09122429 153.57726647 11.54616611 149.53836918 9 145.5 C8.00013493 143.91658146 7.00013452 142.33324837 6 140.75 C-0 131.25 -0 131.25 -1.50268555 128.87036133 C-2.4932675 127.30219563 -3.48430853 125.73431983 -4.47583008 124.16674805 C-7.12394913 119.97873053 -9.76171685 115.78458357 -12.38671875 111.58203125 C-13.21526367 110.25945312 -13.21526367 110.25945312 -14.06054688 108.91015625 C-15.12855177 107.20493834 -16.19375093 105.49795928 -17.25585938 103.7890625 C-17.73216797 103.02980469 -18.20847656 102.27054687 -18.69921875 101.48828125 C-19.12033936 100.81321533 -19.54145996 100.13814941 -19.9753418 99.44262695 C-20.313479 98.96656006 -20.65161621 98.49049316 -21 98 C-21.33 98 -21.66 98 -22 98 Z " fill="#1DBFD9" transform="translate(302,37)"/>
<path d="M0 0 C3.07013595 2.8652643 5.25933228 5.7533789 7.43359375 9.33984375 C8.07554687 10.39171875 8.7175 11.44359375 9.37890625 12.52734375 C10.05824219 13.65269531 10.73757813 14.77804687 11.4375 15.9375 C12.15562965 17.11756524 12.87438772 18.29724826 13.59375 19.4765625 C15.04751585 21.86054327 16.49893767 24.24592544 17.94873047 26.63232422 C20.77394577 31.27062699 23.63441743 35.88657038 26.5 40.5 C31.34985453 48.32320066 36.17844757 56.15932861 41 64 C47.97817978 75.34691053 54.98213135 86.67760479 62 98 C64.10463298 101.39554465 66.2088707 104.79133344 68.3125 108.1875 C69.10781128 109.47140625 69.10781128 109.47140625 69.91918945 110.78125 C73.5732674 116.68436804 77.21248566 122.596492 80.84692383 128.51171875 C86.73485754 138.09458426 92.65008045 147.65860056 98.625 157.1875 C104.06301416 165.86121065 109.4148503 174.58310353 114.7199707 183.33862305 C119.02455836 190.43028384 123.40408518 197.47248438 127.8125 204.5 C132.06657396 211.28520698 136.30701827 218.07615614 140.4375 224.9375 C140.99497925 225.85982422 140.99497925 225.85982422 141.5637207 226.80078125 C144 230.87579467 144 230.87579467 144 232 C46.65 232 -50.7 232 -151 232 C-147.97313545 226.55164382 -145.01723047 221.30233376 -141.5859375 216.140625 C-141.17875488 215.52224258 -140.77157227 214.90386017 -140.35205078 214.26673889 C-139.02929114 212.25921306 -137.70213559 210.25463501 -136.375 208.25 C-135.43665867 206.82729984 -134.49867646 205.40436278 -133.56103516 203.98120117 C-131.64088499 201.06721585 -129.71936213 198.15414321 -127.796875 195.24169922 C-124.03067326 189.53334748 -120.28386002 183.81233731 -116.53863525 178.09020996 C-114.97718718 175.70475301 -113.41487662 173.31986148 -111.85256958 170.93496704 C-110.68255969 169.14891572 -109.51265605 167.36279484 -108.34277344 165.57666016 C-104.79220649 160.15594019 -101.24082398 154.73575454 -97.68951416 149.31552124 C-95.70964376 146.29370202 -93.72982443 143.27184934 -91.75 140.25 C-90.95833358 139.04166651 -90.16666691 137.83333317 -89.375 136.625 C-88.983125 136.026875 -88.59125 135.42875 -88.1875 134.8125 C-74.33333333 113.66666667 -60.47916667 92.52083333 -46.625 71.375 C-46.23316528 70.77693542 -45.84133057 70.17887085 -45.43762207 69.56268311 C-44.64555243 68.35373685 -43.85347886 67.14479317 -43.06140137 65.93585205 C-41.08836806 62.9244175 -39.11540195 59.91293897 -37.14257812 56.90136719 C-33.50705618 51.35178901 -29.87092941 45.80261045 -26.23246765 40.25495911 C-17.44874655 26.86211508 -8.6718446 13.46571825 0 0 Z " fill="#1CCBE2" transform="translate(432,242)"/>
<path d="M0 0 C4.82656708 5.00502839 8.24908628 10.97482208 11.875 16.875 C13.21602522 19.03913725 14.5571745 21.20319762 15.8984375 23.3671875 C16.5800293 24.47030273 17.26162109 25.57341797 17.96386719 26.70996094 C21.12492879 31.81769069 24.31310875 36.90836291 27.5 42 C28.75141898 44.00253112 30.00272078 46.00513548 31.25390625 48.0078125 C33.73843187 51.98331222 36.22561199 55.95713295 38.71484375 59.9296875 C45.24985065 70.36391232 51.74595628 80.82027818 58.1875 91.3125 C63.71413863 100.31329027 69.30235716 109.27066223 74.95703125 118.19140625 C86.46865212 136.35907133 97.75238257 154.6682355 109 173 C105.32709773 180.02455286 101.05415074 186.57106716 96.61572266 193.13244629 C94.59825102 196.11622246 92.59321264 199.10830498 90.58984375 202.1015625 C90.19280243 202.69473267 89.79576111 203.28790283 89.38668823 203.89904785 C86.00623322 208.96319627 82.7278309 214.08719437 79.5 219.25 C75.83925306 225.10131438 72.11438955 230.89279963 68.26391602 236.62084961 C63.76941341 243.31702473 59.35430035 250.0649654 54.9375 256.8125 C54.52774933 257.43837006 54.11799866 258.06424011 53.6958313 258.70907593 C50.79607692 263.13863594 47.89785593 267.56919787 45 272 C44.24984498 273.14681496 43.49968246 274.29362501 42.74951172 275.44042969 C37.83146138 282.95927581 32.91542886 290.47943991 28 298 C18.77242022 312.11811059 9.5393444 326.23257102 0.29455566 340.3394165 C-8.14645851 353.22007371 -16.57455721 366.10915149 -25 379 C-34.13948669 392.98332898 -43.28324809 406.96383318 -52.4375 420.9375 C-52.85481384 421.57458893 -53.27212769 422.21167786 -53.7020874 422.86807251 C-54.88328204 424.67125523 -56.06465411 426.47432155 -57.24609375 428.27734375 C-57.92341553 429.31109131 -58.6007373 430.34483887 -59.29858398 431.40991211 C-60.52557146 433.27777122 -61.76034795 435.14052193 -63 437 C-65.69576467 437.30098748 -68.16323217 437.40424469 -70.86210632 437.38095093 C-71.68375379 437.3856309 -72.50540125 437.39031087 -73.35194713 437.39513266 C-76.12110469 437.40715367 -78.88977381 437.39759772 -81.65893555 437.38818359 C-83.63799836 437.3922463 -85.6170589 437.39758648 -87.59611511 437.40411377 C-92.98478076 437.41783342 -98.37327479 437.41246841 -103.76194358 437.40297651 C-109.39613554 437.39539862 -115.03031248 437.4024208 -120.664505 437.40713501 C-130.13305303 437.41260027 -139.60153097 437.40538311 -149.07006836 437.39111328 C-160.01496951 437.37480885 -170.95970282 437.38005615 -181.90459985 437.3965925 C-191.29576925 437.41021353 -200.68688816 437.41212328 -210.07806426 437.40427649 C-215.68921871 437.39960035 -221.30029434 437.39897306 -226.91144371 437.40888596 C-232.19162262 437.41756142 -237.47158577 437.4115229 -242.75174141 437.39420319 C-244.68870562 437.39024046 -246.62568802 437.39136872 -248.56264496 437.39799118 C-251.20966587 437.40620576 -253.85599825 437.39588591 -256.50297546 437.38095093 C-257.26719289 437.38764309 -258.03141032 437.39433526 -258.81878585 437.40123022 C-264.60661966 437.3380214 -269.3795685 436.19778126 -273.9375 432.375 C-275.63833998 428.5731224 -275.62432141 425.09533004 -275 421 C-273.46702726 417.29280152 -271.40189615 414.00253742 -269.25 410.625 C-268.65872314 409.66239258 -268.06744629 408.69978516 -267.45825195 407.70800781 C-265.65951365 404.79180964 -263.83377423 401.89426408 -262 399 C-261.00867174 397.41954852 -260.01775628 395.838838 -259.02734375 394.2578125 C-257.10022821 391.19251919 -255.16025655 388.13573793 -253.21484375 385.08203125 C-249.50179526 379.23627655 -245.87482938 373.3382325 -242.25 367.4375 C-241.57694824 366.34187744 -240.90389648 365.24625488 -240.21044922 364.11743164 C-238.83254545 361.87339357 -237.45494378 359.62916998 -236.07763672 357.38476562 C-232.65980114 351.8166255 -229.23638045 346.25192451 -225.8125 340.6875 C-224.81138184 339.06026001 -224.81138184 339.06026001 -223.79003906 337.40014648 C-219.18383486 329.91591263 -214.56244292 322.4412247 -209.93286133 314.97143555 C-205.60771454 307.98966917 -201.3020875 300.99599428 -197 294 C-191.65928873 285.31501032 -186.30475381 276.63884218 -180.93359375 267.97265625 C-176.60824387 260.99045755 -172.30233607 253.99639851 -168 247 C-162.65928873 238.31501032 -157.30475381 229.63884218 -151.93359375 220.97265625 C-147.6082438 213.99045744 -143.30236377 206.99638156 -139 200 C-132.54450913 189.50301086 -126.06843397 179.01901476 -119.57666016 168.54443359 C-116.88291446 164.19723359 -114.19157322 159.8485453 -111.5 155.5 C-108.2862934 150.30788832 -105.07219597 145.11602221 -101.85546875 139.92578125 C-96.60703135 131.45534583 -91.36959428 122.97842087 -86.15307617 114.48828125 C-80.26514246 104.90541574 -74.34991955 95.34139944 -68.375 85.8125 C-63.5248115 78.07637971 -58.73326845 70.30819464 -54 62.5 C-48.02742282 52.64974876 -41.95332554 42.86681945 -35.82421875 33.11328125 C-33.15221974 28.85700575 -30.51428766 24.58158867 -27.89453125 20.29296875 C-27.22156006 19.19782959 -26.54858887 18.10269043 -25.85522461 16.97436523 C-24.56620041 14.87546959 -23.28408509 12.77231005 -22.01000977 10.66430664 C-15.68105933 0.39866337 -15.68105933 0.39866337 -9.93359375 -1.78515625 C-6.43592567 -2.17378604 -3.10668948 -1.56780791 0 0 Z M-12.703125 9.78515625 C-13.22583984 10.59984375 -13.74855469 11.41453125 -14.28710938 12.25390625 C-15.13499023 13.61322266 -15.13499023 13.61322266 -16 15 C-16.60134766 15.96292969 -17.20269531 16.92585938 -17.82226562 17.91796875 C-19.80987961 21.12576251 -21.78166164 24.34284569 -23.75 27.5625 C-25.16965649 29.87816685 -26.59067232 32.19299842 -28.01171875 34.5078125 C-28.69540527 35.62188477 -29.3790918 36.73595703 -30.08349609 37.88378906 C-35.77449308 47.13727766 -41.54092768 56.34359895 -47.4296875 65.47265625 C-48.583708 67.3299977 -49.6889569 69.2178685 -50.765625 71.12109375 C-53.63591254 76.18258087 -56.77545772 81.07701037 -59.875 86 C-64.97725471 94.13078601 -70.02641626 102.28988794 -75 110.5 C-80.48246046 119.54637198 -86.05247535 128.53466517 -91.67578125 137.49414062 C-96.15854288 144.63760598 -100.58867974 151.81221889 -105 159 C-112.83255356 171.75621972 -120.67286788 184.50535508 -128.625 197.1875 C-134.10635785 205.93155377 -139.50618391 214.72155037 -144.85839844 223.54516602 C-149.88437842 231.82690219 -154.97603877 240.06672357 -160.0859375 248.296875 C-161.87282448 251.17581281 -163.65128266 254.05936468 -165.4140625 256.953125 C-170.90662864 265.9663115 -170.90662864 265.9663115 -173.625 269.625 C-175.53871315 272.22263031 -177.05700167 274.89609882 -178.5625 277.75 C-182.27671919 284.71776003 -186.5568583 291.31167074 -190.8046875 297.9609375 C-194.60891899 303.92934327 -198.30138492 309.96579114 -202 316 C-209.83167282 328.75674541 -217.67278826 341.50542565 -225.625 354.1875 C-230.47519622 361.92361682 -235.2666859 369.69183224 -240 377.5 C-244.94727238 385.65827633 -249.9472387 393.78159479 -255 401.875 C-255.91652344 403.34549805 -255.91652344 403.34549805 -256.8515625 404.84570312 C-260.08378514 410.01085187 -263.38365906 415.09703195 -266.89086914 420.08056641 C-268.46124618 422.79822088 -268.53436858 424.94646529 -268 428 C-266.01258145 429.98741855 -262.05520928 429.17374288 -259.33407593 429.18754578 C-258.11513702 429.1994109 -258.11513702 429.1994109 -256.87157309 429.21151572 C-254.12712824 429.23673504 -251.38268673 429.25454294 -248.63818359 429.2722168 C-246.67897297 429.28829297 -244.71976481 429.30467269 -242.76055908 429.32133484 C-224.85751829 429.46611262 -206.95377413 429.54109378 -189.05026817 429.60025311 C-175.80982317 429.64484344 -162.57041268 429.72199945 -149.33043039 429.84183758 C-140.02848594 429.92320195 -130.72682532 429.96638426 -121.42454016 429.98155528 C-115.86537271 429.99173103 -110.30750703 430.01910081 -104.74872971 430.08786583 C-99.51652817 430.15187557 -94.2862861 430.16867457 -89.05374908 430.14937019 C-87.13442932 430.1505241 -85.21503122 430.16878951 -83.29606247 430.205513 C-73.18599879 430.74890607 -73.18599879 430.74890607 -64.33995152 426.80222034 C-62.53215012 424.26018772 -61.23434368 421.85576296 -60 419 C-59.33572998 418.00718018 -58.67145996 417.01436035 -57.98706055 415.99145508 C-57.19489136 414.76785278 -57.19489136 414.76785278 -56.38671875 413.51953125 C-55.7841626 412.59156738 -55.18160645 411.66360352 -54.56079102 410.70751953 C-53.94260498 409.75216309 -53.32441895 408.79680664 -52.6875 407.8125 C-48.51758903 401.39011296 -44.33907009 394.97689682 -40.0625 388.625 C-35.76808501 382.23438328 -31.63454758 375.74486404 -27.5 369.25 C-21.82830799 360.3480906 -16.06043487 351.52056837 -10.1875 342.75 C-4.0983898 333.65545227 1.94906584 324.53619048 7.9375 315.375 C15.72563079 303.46305119 23.544196 291.57143989 31.375 279.6875 C39.5515988 267.27733662 47.72296527 254.8638154 55.875 242.4375 C56.50497391 241.47731964 56.50497391 241.47731964 57.14767456 240.4977417 C61.46357481 233.91939804 65.77754862 227.33979434 70.08964539 220.75895691 C80.33082176 205.13058979 90.59532191 189.52028925 101 174 C97.35687315 167.1701345 93.55787152 160.51259005 89.375 154 C88.31633724 152.33728352 87.25774544 150.67452186 86.19921875 149.01171875 C85.39943604 147.7594751 85.39943604 147.7594751 84.58349609 146.48193359 C82.10647139 142.5995048 79.64637424 138.70644087 77.1875 134.8125 C76.45406372 133.6517395 76.45406372 133.6517395 75.70581055 132.4675293 C68.44825322 120.97143712 61.26209746 109.43050107 54.06347656 97.89746094 C45.74651787 84.57434097 37.40038671 71.27067202 29 58 C27.06173251 54.93798476 25.12413778 51.87554627 23.1875 48.8125 C22.46276489 47.66648315 22.46276489 47.66648315 21.72338867 46.49731445 C18.84210691 41.93516782 15.97602368 37.36384392 13.12109375 32.78515625 C12.45762939 31.72127686 11.79416504 30.65739746 11.1105957 29.5612793 C9.82266877 27.49454691 8.53597243 25.42704695 7.25073242 23.35864258 C5.51067981 20.56585226 3.75882063 17.78100223 2 15 C1.44795898 14.11876465 0.89591797 13.2375293 0.32714844 12.32958984 C-0.19588867 11.51441895 -0.71892578 10.69924805 -1.2578125 9.859375 C-1.71559082 9.13975586 -2.17336914 8.42013672 -2.64501953 7.67871094 C-3.99873636 5.71071796 -3.99873636 5.71071796 -7 4.875 C-10.40660218 6.15247582 -10.81161181 6.81947119 -12.703125 9.78515625 Z " fill="#F9FDFE" transform="translate(302,37)"/>
<path d="M0 0 C3.07013595 2.8652643 5.25933228 5.7533789 7.43359375 9.33984375 C8.07554687 10.39171875 8.7175 11.44359375 9.37890625 12.52734375 C10.05824219 13.65269531 10.73757813 14.77804687 11.4375 15.9375 C12.15562965 17.11756524 12.87438772 18.29724826 13.59375 19.4765625 C15.04751585 21.86054327 16.49893767 24.24592544 17.94873047 26.63232422 C20.77394577 31.27062699 23.63441743 35.88657038 26.5 40.5 C31.34985453 48.32320066 36.17844757 56.15932861 41 64 C47.97817978 75.34691053 54.98213135 86.67760479 62 98 C64.10463298 101.39554465 66.2088707 104.79133344 68.3125 108.1875 C69.10781128 109.47140625 69.10781128 109.47140625 69.91918945 110.78125 C73.5732674 116.68436804 77.21248566 122.596492 80.84692383 128.51171875 C86.73485754 138.09458426 92.65008045 147.65860056 98.625 157.1875 C104.06301416 165.86121065 109.4148503 174.58310353 114.7199707 183.33862305 C119.02455836 190.43028384 123.40408518 197.47248438 127.8125 204.5 C132.06657396 211.28520698 136.30701827 218.07615614 140.4375 224.9375 C140.99497925 225.85982422 140.99497925 225.85982422 141.5637207 226.80078125 C144 230.87579467 144 230.87579467 144 232 C46.65 232 -50.7 232 -151 232 C-147.97313545 226.55164382 -145.01723047 221.30233376 -141.5859375 216.140625 C-141.17875488 215.52224258 -140.77157227 214.90386017 -140.35205078 214.26673889 C-139.02929114 212.25921306 -137.70213559 210.25463501 -136.375 208.25 C-135.43665867 206.82729984 -134.49867646 205.40436278 -133.56103516 203.98120117 C-131.64088499 201.06721585 -129.71936213 198.15414321 -127.796875 195.24169922 C-124.03067326 189.53334748 -120.28386002 183.81233731 -116.53863525 178.09020996 C-114.97718718 175.70475301 -113.41487662 173.31986148 -111.85256958 170.93496704 C-110.68255969 169.14891572 -109.51265605 167.36279484 -108.34277344 165.57666016 C-104.79220649 160.15594019 -101.24082398 154.73575454 -97.68951416 149.31552124 C-95.70964376 146.29370202 -93.72982443 143.27184934 -91.75 140.25 C-90.95833358 139.04166651 -90.16666691 137.83333317 -89.375 136.625 C-88.983125 136.026875 -88.59125 135.42875 -88.1875 134.8125 C-74.33333333 113.66666667 -60.47916667 92.52083333 -46.625 71.375 C-46.23316528 70.77693542 -45.84133057 70.17887085 -45.43762207 69.56268311 C-44.64555243 68.35373685 -43.85347886 67.14479317 -43.06140137 65.93585205 C-41.08836806 62.9244175 -39.11540195 59.91293897 -37.14257812 56.90136719 C-33.50705618 51.35178901 -29.87092941 45.80261045 -26.23246765 40.25495911 C-17.44874655 26.86211508 -8.6718446 13.46571825 0 0 Z M0 13 C-0.78297011 14.11256068 -1.51644506 15.25995163 -2.23046875 16.41796875 C-2.69541748 17.1653833 -3.16036621 17.91279785 -3.6394043 18.68286133 C-4.40571167 19.92265747 -4.40571167 19.92265747 -5.1875 21.1875 C-9.42310849 27.96434746 -13.73307143 34.67746855 -18.1875 41.3125 C-24.86871634 51.27578469 -31.47255391 61.28868662 -38.0625 71.3125 C-38.86909561 72.53925949 -38.86909561 72.53925949 -39.69198608 73.790802 C-43.4627304 79.52627775 -47.23164953 85.26295124 -51 91 C-51.48780945 91.74256042 -51.9756189 92.48512085 -52.47821045 93.25018311 C-62.56805305 108.60930436 -72.64491796 123.97680923 -82.69824219 139.35986328 C-87.877453 147.28466514 -93.06185042 155.20604861 -98.25 163.125 C-98.83358276 164.0158429 -98.83358276 164.0158429 -99.42895508 164.92468262 C-104.13301625 172.10510224 -108.84145847 179.28262593 -113.5546875 186.45703125 C-114.49317063 187.88590063 -115.43164723 189.31477431 -116.37011719 190.74365234 C-118.14863912 193.45151945 -119.92804995 196.15879928 -121.70800781 198.86572266 C-125.86447735 205.19037197 -130.00615015 211.5246167 -134.1171875 217.87890625 C-134.70404831 218.78092018 -134.70404831 218.78092018 -135.30276489 219.70115662 C-137.18804816 222.16202873 -137.18804816 222.16202873 -138 225 C-49.23 225 39.54 225 131 225 C129.4425148 221.106287 127.9424763 218.07460653 125.76171875 214.5625 C125.11332031 213.51384766 124.46492188 212.46519531 123.796875 211.38476562 C122.75273438 209.70930664 122.75273438 209.70930664 121.6875 208 C120.95926713 206.82509798 120.2314071 205.6499648 119.50390625 204.47460938 C118.03258443 202.09891946 116.55910516 199.72459184 115.08349609 197.3515625 C112.73177162 193.5685213 110.38679074 189.78134813 108.04296875 185.9934082 C107.00568132 184.31717141 105.96791301 182.64123211 104.9296875 180.96557617 C98.61233836 170.76842475 92.33187156 160.54857633 86.04833984 150.33056641 C82.03479226 143.804605 78.01900592 137.28002075 74.00292969 130.75561523 C70.65435289 125.31520033 67.30768544 119.87362848 63.96484375 114.4296875 C56.86026639 102.86431653 49.71352253 91.32766979 42.50366211 79.82763672 C38.28278671 73.08334548 34.12429512 66.30372167 30 59.5 C23.35139591 48.53316209 16.58848911 37.63931753 9.75439453 26.78710938 C8.51120456 24.81212235 7.27310452 22.83392719 6.03857422 20.85351562 C5.40580566 19.84482422 4.77303711 18.83613281 4.12109375 17.796875 C3.54673584 16.87745117 2.97237793 15.95802734 2.38061523 15.01074219 C1.92501221 14.34719727 1.46940918 13.68365234 1 13 C0.67 13 0.34 13 0 13 Z " fill="#FDFEFE" transform="translate(432,242)"/>
<path d="M0 0 C7.8513248 10.36374874 14.39579327 21.80667774 21.27172852 32.82788086 C25.22683188 39.16681447 29.19474255 45.49721454 33.1875 51.8125 C33.66775635 52.57216064 34.1480127 53.33182129 34.64282227 54.11450195 C36.61133207 57.22685313 38.58106272 60.33842987 40.55126953 63.44970703 C43.11130215 67.49298975 45.66785979 71.53832667 48.21484375 75.58984375 C49.97579721 78.38929267 51.75822669 81.17225592 53.56640625 83.94140625 C54.31516269 85.10673323 55.0638647 86.27209519 55.8125 87.4375 C56.45832031 88.42621094 57.10414063 89.41492188 57.76953125 90.43359375 C59.19935494 93.41579745 59.04778585 93.98308484 58 97 C56.97393799 98.86207581 56.97393799 98.86207581 55.68457031 100.81079102 C55.19654938 101.55423767 54.70852844 102.29768433 54.20571899 103.06365967 C53.66861298 103.86894104 53.13150696 104.67422241 52.578125 105.50390625 C51.73270645 106.78542572 51.73270645 106.78542572 50.87020874 108.09283447 C49.00258988 110.91993107 47.12647921 113.74127816 45.25 116.5625 C43.94290214 118.53650752 42.63610292 120.51071281 41.32958984 122.48510742 C30.94335821 138.1597414 20.43077251 153.74870516 9.89746094 169.32470703 C3.48368231 178.81194366 -2.89004655 188.31683061 -9.11376953 197.93017578 C-15.77367633 208.21689596 -22.51097709 218.45248888 -29.25 228.6875 C-29.87974731 229.64461884 -30.50949463 230.60173767 -31.1583252 231.58786011 C-37.4017573 241.07341415 -43.65571774 250.54950168 -50.0625 259.92578125 C-50.51486023 260.58817307 -50.96722046 261.25056488 -51.43328857 261.93302917 C-53.48882928 264.93854798 -55.55280468 267.93779357 -57.62988281 270.9284668 C-58.33467773 271.95238525 -59.03947266 272.97630371 -59.765625 274.03125 C-60.37180664 274.90330078 -60.97798828 275.77535156 -61.60253906 276.67382812 C-63.24418727 279.1502857 -63.24418727 279.1502857 -64 283 C-102.28 283 -140.56 283 -180 283 C-175.76309313 275.73673108 -171.55726507 268.62250981 -166.9375 261.625 C-165.79857735 259.88600696 -164.66058976 258.14640124 -163.5234375 256.40625 C-162.94303711 255.51808594 -162.36263672 254.62992188 -161.76464844 253.71484375 C-158.83297851 249.20458232 -155.94634707 244.66593784 -153.0625 240.125 C-152.19129517 238.75335693 -152.19129517 238.75335693 -151.30249023 237.35400391 C-150.12344108 235.49690783 -148.9446491 233.63964845 -147.76611328 231.78222656 C-144.84820054 227.18552576 -141.923716 222.59301083 -139 218 C-138.42185547 217.09121094 -137.84371094 216.18242187 -137.24804688 215.24609375 C-134.34677369 210.68556399 -131.44326529 206.12648671 -128.53515625 201.5703125 C-122.5181537 192.13813997 -116.54162431 182.68300195 -110.625 173.1875 C-103.51654682 161.78389501 -96.28586844 150.46123561 -89.02490234 139.15429688 C-69.71622082 109.21491487 -69.71622082 109.21491487 -50.8515625 78.99609375 C-47.68599476 73.87375101 -44.41094991 68.82228832 -41.14111328 63.76611328 C-39.25537037 60.84752872 -37.37806774 57.92352682 -35.5 55 C-33.22750467 51.46423694 -30.9544153 47.92885853 -28.6796875 44.39453125 C-28.29361328 43.79447266 -27.90753906 43.19441406 -27.50976562 42.57617188 C-26.45200137 40.93217683 -25.39397954 39.28834753 -24.3359375 37.64453125 C-22.45396613 34.71519458 -20.58814618 31.77579335 -18.72265625 28.8359375 C-14.88239247 22.797628 -10.9776618 16.80242861 -7.0625 10.8125 C-6.37865234 9.76513672 -5.69480469 8.71777344 -4.99023438 7.63867188 C-3.3273894 5.09207713 -1.66397076 2.54585922 0 0 Z M0 14 C-5.13727256 20.67130036 -9.52137425 27.90506254 -13.9375 35.0625 C-19.25287048 43.62233473 -24.62134597 52.14454164 -30.0625 60.625 C-30.72934814 61.66446777 -31.39619629 62.70393555 -32.08325195 63.77490234 C-33.41203117 65.84591606 -34.74088753 67.91688029 -36.06982422 69.98779297 C-39.0985845 74.71443658 -42.11271742 79.45034368 -45.125 84.1875 C-45.69484619 85.08355957 -46.26469238 85.97961914 -46.85180664 86.90283203 C-47.99537067 88.70127695 -49.13884431 90.49977935 -50.28222656 92.29833984 C-53.18673564 96.86646057 -56.09349229 101.43315077 -59 106 C-60.1666772 107.83332663 -61.33334387 109.66665996 -62.5 111.5 C-78.83333333 137.16666667 -95.16666667 162.83333333 -111.5 188.5 C-112.07733887 189.4072583 -112.65467773 190.3145166 -113.24951172 191.24926758 C-114.41776388 193.08506912 -115.58605824 194.9208438 -116.75439453 196.7565918 C-119.64714755 201.30194376 -122.5391977 205.84773967 -125.4296875 210.39453125 C-131.60466433 220.10608573 -137.7936533 229.8084591 -144 239.5 C-145.99756646 242.6209846 -147.99494001 245.74209252 -149.9921875 248.86328125 C-151.35097363 250.98605413 -152.71036602 253.10843905 -154.0703125 255.23046875 C-156.04903765 258.31893519 -158.0248456 261.40924914 -160 264.5 C-160.90878906 265.91635742 -160.90878906 265.91635742 -161.8359375 267.36132812 C-162.38507813 268.22177734 -162.93421875 269.08222656 -163.5 269.96875 C-163.9846875 270.72607422 -164.469375 271.48339844 -164.96875 272.26367188 C-166.08510841 273.80671755 -166.08510841 273.80671755 -166 275 C-110.26250455 283.16069988 -110.26250455 283.16069988 -59.3782196 269.14736938 C-51.02021478 260.13986945 -46.71692664 248.53511953 -42.52929688 237.16162109 C-38.96249125 227.88846965 -33.15381592 220.1434657 -27.38098145 212.13394165 C-24.24636159 207.74452791 -21.25397851 203.26060261 -18.25 198.78125 C-17.65221741 197.89504471 -17.05443481 197.00883942 -16.4385376 196.09577942 C-9.10366815 185.21795302 -1.91366278 174.2446811 5.287323 163.27801514 C17.65522814 144.44912498 30.22996178 125.76260321 42.86561584 107.11257935 C43.81719168 105.70784925 44.76688405 104.30184049 45.7142334 102.89425659 C46.54957698 101.66358604 47.39643135 100.44062277 48.25646973 99.2270813 C49.21996254 97.85108432 50.11734605 96.4291984 51 95 C50.13469503 90.11837384 46.29159257 85.51665707 43.625 81.375 C42.5337441 79.6641327 41.44260139 77.9531932 40.3515625 76.2421875 C39.7937207 75.37045898 39.23587891 74.49873047 38.66113281 73.60058594 C36.09122429 69.57726647 33.54616611 65.53836918 31 61.5 C30.00013493 59.91658146 29.00013452 58.33324837 28 56.75 C22 47.25 22 47.25 20.49731445 44.87036133 C19.5067325 43.30219563 18.51569147 41.73431983 17.52416992 40.16674805 C14.87605087 35.97873053 12.23828315 31.78458357 9.61328125 27.58203125 C8.78473633 26.25945312 8.78473633 26.25945312 7.93945312 24.91015625 C6.87144823 23.20493834 5.80624907 21.49795928 4.74414062 19.7890625 C4.26783203 19.02980469 3.79152344 18.27054688 3.30078125 17.48828125 C2.87966064 16.81321533 2.45854004 16.13814941 2.0246582 15.44262695 C1.686521 14.96656006 1.34838379 14.49049316 1 14 C0.67 14 0.34 14 0 14 Z " fill="#F7FDFE" transform="translate(280,121)"/>
</svg>
